<svg width="132" height="30" viewBox="0 0 132 30" fill="none" xmlns="http://www.w3.org/2000/svg">
<path d="M127.874 29.652L123.212 19.488H110.864L106.37 29.652H103.892L117.668 0L131.444 29.652H127.874ZM116.954 5.754L111.662 17.682H122.414L116.954 5.754Z" fill="#A39675"/>
<path d="M75.3281 29.6519V0.965942H92.2121V3.02394L78.5621 2.77194V14.2379L91.6661 14.1539V16.1279L78.5621 16.0439V27.8459L92.2121 27.5939V29.6519H75.3281Z" fill="#A39675"/>
<path d="M57.8548 29.6519L45.4228 16.0439H49.7488C50.6448 16.0439 51.5128 15.9179 52.3528 15.6659C53.1928 15.3859 53.9348 14.9799 54.5788 14.4479C55.2228 13.8879 55.7408 13.2019 56.1328 12.3899C56.5248 11.5499 56.7208 10.5559 56.7208 9.40794C56.7208 8.28794 56.5248 7.30794 56.1328 6.46794C55.7408 5.62794 55.2228 4.94194 54.5788 4.40994C53.9348 3.84994 53.1928 3.44394 52.3528 3.19194C51.5128 2.91194 50.6448 2.77194 49.7488 2.77194H43.9528V29.6519H40.7188V0.965942H50.0428C51.4988 0.965942 52.8428 1.18994 54.0748 1.63794C55.3348 2.05794 56.4128 2.64594 57.3088 3.40194C58.2048 4.15794 58.9048 5.05394 59.4088 6.08994C59.9128 7.12594 60.1648 8.23194 60.1648 9.40794C60.1648 10.5279 59.9268 11.5779 59.4508 12.5579C58.9748 13.5099 58.3168 14.3499 57.4768 15.0779C56.6368 15.7779 55.6428 16.3379 54.4948 16.7579C53.3468 17.1499 52.1148 17.3459 50.7988 17.3459L62.1808 29.6519H57.8548Z" fill="#A39675"/>
<path d="M24.5386 29.652L19.8766 19.488H7.52864L3.03464 29.652H0.556641L14.3326 0L28.1086 29.652H24.5386ZM13.6186 5.754L8.32664 17.682H19.0786L13.6186 5.754Z" fill="#A39675"/>
</svg>
